<?xml version="1.0" encoding="UTF-8"?><svg id="a" xmlns="http://www.w3.org/2000/svg" width="182.455" height="56.323" xmlns:xlink="http://www.w3.org/1999/xlink" viewBox="0 0 182.455 56.323"><defs><linearGradient id="c" x1="172.23" y1="9244.202" x2="231.85" y2="9244.202" gradientTransform="translate(-172.23 9281.359) scale(1 -1)" gradientUnits="userSpaceOnUse"><stop offset="0" stop-color="#e75525"/><stop offset="1" stop-color="#f29020"/></linearGradient><linearGradient id="d" x1="221.787" y1="9272.285" x2="238.056" y2="9272.285" xlink:href="#c"/></defs><g id="b"><path d="M26.138,28.895c.046-.15.117-.29.212-.414.065-.049.15-.026.251.072.499.437,1.455,2.438,2.699,5.462,1.243,3.025,2.806,7.149,4.51,11.812,3.772,10.086,10.07,5.329,10.07,5.329,1.547,3.093,2.783,4.536,4.111,4.934,3.429,1.028,5.857-2.754,7.724-7.355,2.043-5.041,3.589-13.232,3.863-18.874.16-3.188.016-6.461-3.038-7.41-.212-.069-.431-.111-.653-.127-4.118-.326-6.095,8.944-6.921,11.838-.137.47-2.937,9.463-3.847,10.115-.026-.176-.055-.356-.082-.535-.02,0,0-.02,0-.02,0,0-.653-3.518-1.896-7.809-1.224-4.219-3.038-9.228-5.4-12.726-4.849-7.159-10.882-1.932-10.882-1.932C10.566,5.783-7.599,49.987,3.316,55.613c9.558,4.004,15.881-9.789,19.813-19.497,1.227-3.028,2.222-5.658,3.009-7.221h0ZM53.316,28.66c.202-.636.457-1.253.767-1.844.48-.875,1.057-1.436,1.733-1.214.545.179.865.757,1.031,1.57.173,1.116.193,2.248.059,3.371-.078.839-.199,1.71-.326,2.542-.326,2-.764,4.213-1.273,6.438-.418,1.827-3.795,16.939-7.221,11.369-.023-.039-.042-.082-.062-.114,0-.01-.01-.02-.016-.029h0c-.441-.907-.809-1.844-1.103-2.809.326-.245,1.149-1.798,2.232-4.627,1.821-4.761,2.61-9.887,4.193-14.651h-.013ZM30.82,23.791c.379-.091.773-.098,1.155-.02.724.14,1.602.574,2.633,1.53,1.684,1.556,3.687,6.852,5.26,11.864,1.599,5.09,2.911,10.749,2.911,10.749-1.87,1.72-3.638.636-4.895-2.017-1.821-3.877-3.824-10.925-5.939-16.064-.855-1.632-1.632-3.338-2.787-4.953.496-.437.685-.855,1.648-1.09h.013ZM18.473,22.179c1.873-.395,3.854.091,5.492,2.333-.835,1.057-2.323,5.371-3.668,8.158-.516,1.06-8.951,22.153-14.7,18.812-3.002-1.99-.692-11.199,2.467-17.588,1.977-4.036,5.27-10.638,10.409-11.714h0Z" fill="url(#c)" fill-rule="evenodd"/><path d="M65.631,9.32c-5.247,1.351-6.503,2.741-7.691,8.631-.033.137-.17.222-.307.189-.095-.023-.17-.095-.189-.189-1.188-5.89-2.444-7.28-7.691-8.631-.134-.033-.219-.166-.189-.3.023-.095.095-.166.189-.189,5.247-1.351,6.503-2.741,7.691-8.634.033-.137.17-.222.307-.189.095.023.17.095.189.189,1.188,5.893,2.444,7.283,7.691,8.634.134.033.219.166.189.3-.023.095-.095.166-.189.189Z" fill="url(#d)" fill-rule="evenodd"/><g isolation="isolate"><path d="M73.175,22.447h2.885l7.224,9.277,7.078-9.277h2.855v15.343h-3.299v-9.486c0-.297.029-.832.117-1.635-.326.685-.623,1.25-.891,1.605l-5.769,7.671h-.715l-5.769-7.701c-.356-.476-.685-.982-.92-1.576.059.623.088,1.129.088,1.635v9.486h-2.885v-15.343Z" fill="#fff"/><path d="M102.934,25.211h2.943l7.58,12.576h-3.449l-1.576-2.764h-8.324l-1.576,2.764h-3.064l7.463-12.576h.003ZM107.186,32.732l-2.943-5.234-2.826,5.234h5.769Z" fill="#fff"/><path d="M111.526,25.211h3.478l5.322,9.127,5.025-9.127h3.181l-7.283,12.576h-2.111l-7.613-12.576Z" fill="#fff"/><path d="M132.784,27.469v2.646h8.177c2.496,0,3.27.594,3.27,2.973v1.726c0,2.349-.773,2.973-3.27,2.973h-8.177c-2.496,0-3.299-.623-3.299-2.973v-.356l2.734-.506v1.488h9.248v-2.885h-8.148c-2.467,0-3.299-.594-3.299-2.973v-1.397c0-2.379.832-2.973,3.299-2.973h7.463c2.32,0,3.299.535,3.299,2.734v.297l-2.646.565v-1.338h-8.65v-.003Z" fill="#fff"/><path d="M163.438,22.447h3.449l8.8,15.343h-4.014l-1.844-3.361h-9.724l-1.785,3.361h-3.567l8.683-15.343ZM168.342,31.662l-3.299-6.242-3.42,6.242h6.719,0Z" fill="#fff"/><path d="M178.392,22.447h3.567v15.343h-3.567v-15.343Z" fill="#fff"/></g><path d="M76.314,52.131c-.535,0-1.021-.108-1.455-.323s-.783-.545-1.041-.985c-.261-.441-.392-1.008-.392-1.7v-4.927h.936v4.94c0,.506.085.917.251,1.237.166.32.398.555.698.702.297.15.64.222,1.025.222s.737-.075,1.025-.222c.29-.147.516-.382.679-.702s.245-.731.245-1.237v-4.94h.936v4.927c0,.692-.131,1.26-.392,1.7-.261.444-.61.77-1.047.985s-.93.323-1.472.323h.003Z" fill="#fff"/><path d="M81.042,51.997v-5.619h.848l.046.982c.179-.349.434-.623.764-.819.33-.196.708-.297,1.132-.297s.819.088,1.139.261c.32.176.568.437.747.793.179.352.268.799.268,1.344v3.354h-.936v-3.257c0-.565-.124-.989-.372-1.273s-.6-.424-1.054-.424c-.313,0-.591.075-.835.228s-.441.372-.584.659-.219.64-.219,1.064v2.999h-.936l-.007.003Z" fill="#fff"/><path d="M87.722,51.997v-8.027h.936v8.027h-.936Z" fill="#fff"/><path d="M92.949,52.131c-.519,0-.985-.124-1.393-.369s-.728-.591-.959-1.031-.346-.956-.346-1.543.114-1.113.339-1.55.545-.78.959-1.025.888-.369,1.423-.369,1.018.124,1.403.369.682.568.888.966.307.835.307,1.308v.235c0,.082-.003.176-.013.277h-4.604v-.724h3.691c-.023-.512-.193-.914-.506-1.204-.317-.29-.711-.434-1.188-.434-.313,0-.607.072-.881.219-.274.144-.496.356-.659.636s-.245.627-.245,1.041v.313c0,.46.085.848.251,1.158s.385.545.659.702.565.235.874.235c.395,0,.718-.088.976-.261s.444-.414.565-.718h.927c-.098.343-.258.646-.48.91s-.499.473-.829.63-.715.235-1.155.235l-.003-.007Z" fill="#fff"/><path d="M98.924,52.131c-.454,0-.832-.082-1.136-.241s-.532-.372-.679-.636-.222-.551-.222-.865c0-.379.098-.702.297-.966.196-.264.476-.463.835-.604.359-.137.786-.206,1.276-.206h1.481c0-.349-.055-.643-.16-.874-.108-.235-.264-.411-.47-.529s-.46-.179-.764-.179c-.356,0-.666.088-.927.268s-.421.444-.48.793h-.959c.046-.401.179-.737.408-1.008.225-.271.516-.48.865-.623s.715-.219,1.093-.219c.519,0,.953.095,1.299.284s.604.454.773.793.258.737.258,1.198v3.478h-.835l-.055-.992c-.075.157-.17.303-.284.441-.114.137-.248.258-.401.356-.153.101-.33.179-.529.241s-.427.088-.679.088l-.007.003ZM99.07,51.341c.261,0,.496-.055.708-.163.212-.108.392-.258.542-.447s.261-.398.339-.63.117-.473.117-.724v-.033h-1.406c-.365,0-.659.042-.881.127-.222.085-.382.206-.48.356s-.144.326-.144.519.046.375.14.525c.091.15.232.264.411.346.183.082.398.124.653.124Z" fill="#fff"/><path d="M105.557,52.131c-.46,0-.865-.078-1.214-.235s-.627-.375-.832-.653-.33-.607-.372-.985h.959c.036.193.114.372.235.535.117.163.281.297.486.395.206.101.457.15.754.15.261,0,.476-.039.646-.117.17-.078.3-.183.385-.317.085-.134.127-.277.127-.434,0-.232-.055-.405-.163-.522s-.264-.215-.473-.284c-.209-.072-.46-.131-.757-.183-.245-.046-.486-.104-.724-.179s-.45-.173-.636-.297-.333-.274-.441-.45c-.108-.179-.163-.398-.163-.659,0-.32.085-.604.251-.852s.405-.444.708-.584.662-.212,1.07-.212c.604,0,1.09.144,1.462.434s.591.711.659,1.26h-.927c-.036-.284-.157-.503-.362-.662-.206-.16-.486-.238-.842-.238s-.613.072-.796.212-.274.326-.274.558c0,.15.049.281.15.395s.251.215.45.297c.202.082.441.15.724.202.372.065.708.157,1.015.268s.551.277.741.496.284.529.284.93c0,.349-.088.656-.261.914-.176.261-.421.463-.741.607-.32.144-.695.219-1.126.219l-.003-.007Z" fill="#fff"/><path d="M109.316,51.997v-8.027h.936v3.354c.186-.333.447-.597.786-.793.339-.193.708-.29,1.109-.29.431,0,.806.088,1.126.261.32.176.565.441.737.796.17.356.258.806.258,1.348v3.345h-.927v-3.243c0-.565-.117-.989-.356-1.276s-.584-.431-1.038-.431c-.32,0-.607.078-.865.235s-.46.379-.607.669c-.15.29-.222.646-.222,1.07v2.976h-.936l-.003.007Z" fill="#fff"/><path d="M118.805,51.997l2.875-7.805h.992l2.865,7.805h-.992l-2.376-6.634-2.385,6.634h-.982.003ZM120.12,49.991l.268-.757h3.534l.268.757h-4.069Z" fill="#fff"/><path d="M126.986,51.997v-7.805h.936v7.805h-.936Z" fill="#fff"/><path d="M130.154,52.053c-.186,0-.339-.062-.463-.183s-.183-.274-.183-.45.062-.33.183-.45.277-.183.463-.183.339.062.457.183c.117.124.179.274.179.45s-.059.33-.179.45c-.117.124-.271.183-.457.183Z" fill="#fff"/><path d="M138.09,52.131c-.574,0-1.07-.104-1.494-.313s-.751-.496-.982-.868c-.232-.372-.346-.803-.346-1.292h.982c0,.303.072.584.212.842.14.258.349.46.62.613s.607.228,1.008.228c.349,0,.649-.059.897-.173s.437-.274.568-.473.196-.427.196-.679c0-.303-.065-.551-.196-.741s-.307-.343-.529-.463c-.222-.117-.48-.225-.773-.317s-.6-.196-.92-.307c-.617-.209-1.07-.467-1.361-.773-.29-.31-.434-.711-.434-1.211,0-.424.098-.796.297-1.116.196-.32.48-.571.848-.754s.806-.274,1.312-.274.93.095,1.299.277c.369.186.656.441.865.764.209.323.313.698.313,1.119h-.982c0-.215-.055-.427-.166-.636s-.281-.382-.506-.519c-.228-.137-.512-.206-.852-.206-.284-.007-.532.039-.754.14-.219.101-.392.245-.512.431s-.183.411-.183.679c0,.251.055.457.163.613.108.157.264.287.467.395.206.108.444.206.718.297.274.088.581.189.914.3.379.127.715.281,1.008.463s.522.414.692.698c.166.284.251.643.251,1.08,0,.372-.098.724-.297,1.054-.196.33-.489.6-.874.809s-.874.313-1.462.313l-.007-.003Z" fill="#fff"/><path d="M144.76,52.131c-.519,0-.985-.124-1.393-.369s-.728-.591-.959-1.031-.346-.956-.346-1.543.114-1.113.339-1.55c.228-.437.548-.78.959-1.025s.888-.369,1.423-.369,1.018.124,1.406.369c.385.245.682.568.888.966s.307.835.307,1.308v.235c0,.082-.003.176-.01.277h-4.604v-.724h3.691c-.023-.512-.193-.914-.506-1.204-.317-.29-.711-.434-1.188-.434-.313,0-.607.072-.881.219-.274.144-.496.356-.659.636-.163.277-.245.627-.245,1.041v.313c0,.46.085.848.251,1.158.166.313.385.545.659.702.271.157.565.235.874.235.395,0,.718-.088.976-.261.258-.173.444-.414.565-.718h.927c-.098.343-.258.646-.48.91s-.499.473-.832.63c-.33.157-.715.235-1.155.235l-.007-.007Z" fill="#fff"/><path d="M151.436,52.131c-.529,0-1.002-.124-1.423-.369s-.747-.591-.985-1.031c-.238-.441-.356-.953-.356-1.534s.117-1.109.356-1.55c.238-.437.568-.783.985-1.031s.894-.375,1.423-.375c.669,0,1.227.173,1.674.519.447.346.728.809.848,1.387h-.959c-.075-.349-.258-.62-.548-.813-.29-.193-.633-.29-1.025-.29-.32,0-.617.082-.888.241s-.489.398-.659.718c-.166.32-.251.715-.251,1.181,0,.349.049.659.144.93s.225.496.392.675c.163.179.356.313.574.408s.447.14.685.14c.268,0,.509-.042.724-.127s.398-.212.545-.385c.15-.17.248-.372.3-.6h.959c-.117.565-.405,1.025-.852,1.377-.45.352-1.005.529-1.667.529h.003Z" fill="#fff"/><path d="M157.603,52.131c-.431,0-.809-.085-1.132-.258s-.571-.434-.747-.793c-.176-.356-.261-.803-.261-1.338v-3.367h.936v3.266c0,.558.124.979.369,1.26.245.284.591.424,1.038.424.313,0,.594-.075.848-.228.251-.153.45-.372.597-.659.144-.287.219-.643.219-1.064v-2.999h.936v5.619h-.848l-.055-.982c-.17.349-.424.623-.757.819-.336.196-.715.297-1.139.297l-.003.003Z" fill="#fff"/><path d="M162.23,51.997v-5.619h.848l.065,1.07c.127-.251.287-.467.486-.646.196-.179.434-.317.715-.411s.597-.144.953-.144v.982h-.346c-.238,0-.463.033-.679.095s-.408.166-.574.307-.297.333-.392.574c-.091.241-.14.542-.14.897v2.898h-.936v-.003Z" fill="#fff"/><path d="M168.884,52.131c-.519,0-.985-.124-1.393-.369s-.728-.591-.959-1.031-.346-.956-.346-1.543.114-1.113.339-1.55c.228-.437.548-.78.959-1.025s.888-.369,1.423-.369,1.018.124,1.406.369c.385.245.682.568.888.966.206.398.307.835.307,1.308v.235c0,.082-.003.176-.01.277h-4.604v-.724h3.691c-.023-.512-.193-.914-.506-1.204-.317-.29-.711-.434-1.188-.434-.313,0-.607.072-.881.219-.274.144-.496.356-.659.636-.163.277-.245.627-.245,1.041v.313c0,.46.085.848.251,1.158.166.313.385.545.659.702.271.157.565.235.874.235.395,0,.718-.088.976-.261s.444-.414.565-.718h.927c-.098.343-.258.646-.48.91s-.499.473-.832.63c-.33.157-.715.235-1.155.235l-.007-.007Z" fill="#fff"/><path d="M173.031,51.997v-8.027h.936v8.027h-.936Z" fill="#fff"/><path d="M176.412,54.451l1.37-3.077h-.323l-2.209-4.996h1.015l1.827,4.291,1.928-4.291h.969l-3.602,8.073h-.982.007Z" fill="#fff"/><path d="M181.818,52.053c-.186,0-.339-.062-.463-.183s-.183-.274-.183-.45.062-.33.183-.45.277-.183.463-.183.339.062.457.183c.117.124.179.274.179.45s-.059.33-.179.45c-.117.124-.271.183-.457.183Z" fill="#fff"/></g></svg>